<svg version="1.1" xmlns="http://www.w3.org/2000/svg" xmlns:xlink="http://www.w3.org/1999/xlink" width="51.4" height="51.4" viewBox="0,0,51.4,51.4"><g transform="translate(-214.3,-154.3)"><g data-paper-data="{&quot;isPaintingLayer&quot;:true}" fill-rule="nonzero" stroke="#000000" stroke-linejoin="miter" stroke-miterlimit="10" stroke-dasharray="" stroke-dashoffset="0" style="mix-blend-mode: normal"><path d="M216.8,180c0,-12.81301 10.38699,-23.2 23.2,-23.2c12.81301,0 23.2,10.38699 23.2,23.2c0,12.81301 -10.38699,23.2 -23.2,23.2c-12.81301,0 -23.2,-10.38699 -23.2,-23.2z" fill="#ffea00" stroke-width="5" stroke-linecap="butt"/><path d="M226.79743,172.98057c0,-0.97853 0.79326,-1.77181 1.7718,-1.77181c0.97853,0 1.7718,0.79327 1.7718,1.77181c0,0.97853 -0.79327,1.77181 -1.7718,1.77181c-0.97853,0 -1.7718,-0.79327 -1.7718,-1.77181z" fill="#000000" stroke-width="5" stroke-linecap="butt"/><path d="M236.65657,170.7158c0,-0.97853 0.79326,-1.77179 1.7718,-1.77179c0.97853,0 1.77181,0.79326 1.77181,1.77179c0,0.97853 -0.79328,1.77181 -1.77181,1.77181c-0.97853,0 -1.7718,-0.79328 -1.7718,-1.77181z" fill="#000000" stroke-width="5" stroke-linecap="butt"/><path d="M226.11749,183.29222c0,0 3.41156,5.06958 5.38488,5.41555c1.9608,0.34377 6.41774,-3.3463 6.41774,-3.3463" fill="none" stroke-width="5" stroke-linecap="round"/><path d="M243.60399,180.45549c0.12269,-3.8419 3.33664,-6.85691 7.17854,-6.73422c3.8419,0.12269 6.85692,3.33664 6.73422,7.17854c-0.1227,3.8419 -3.33664,6.85691 -7.17854,6.73422c-3.8419,-0.12269 -6.85691,-3.33664 -6.73422,-7.17854z" fill="none" stroke-width="3" stroke-linecap="butt"/><path d="M250.88996,188.29872l-5.55738,15.1336l-6.26332,-2.068l5.55038,-15.13616z" fill="#24ab00" stroke-width="3" stroke-linecap="round"/><path d="M251.24711,189.03858l3.7499,14.29176l6.36318,-2.3914l-4.18768,-15.50506l-4.94447,2.25823" fill="#24ab00" stroke-width="3" stroke-linecap="round"/></g></g></svg>